<svg version="1.1" id="Layer_1" xmlns="http://www.w3.org/2000/svg" xmlns:xlink="http://www.w3.org/1999/xlink" x="0px" y="0px"
	 width="100%" viewBox="0 0 225 225" enable-background="new 0 0 225 225" xml:space="preserve">
<path fill="#FEFEFE" opacity="1.000000" stroke="none" 
	d="
M152.000000,226.000000 
	C101.333336,226.000000 51.166672,226.000000 1.000007,226.000000 
	C1.000005,151.000000 1.000005,76.000015 1.000002,1.000017 
	C75.999992,1.000011 150.999985,1.000011 225.999969,1.000006 
	C225.999985,75.999985 225.999985,150.999969 226.000000,225.999969 
	C201.500000,226.000000 177.000000,226.000000 152.000000,226.000000 
M99.499802,122.615829 
	C115.148064,122.615829 130.796326,122.615860 146.444580,122.615829 
	C159.762268,122.615807 173.080109,122.654327 186.397583,122.599861 
	C193.356934,122.571396 197.567505,118.991928 197.588791,113.298904 
	C197.610062,107.609734 193.312393,103.993202 186.465027,103.953629 
	C183.801575,103.938232 181.137970,103.950821 178.474426,103.950813 
	C132.528381,103.950798 86.582321,103.973190 40.636368,103.911873 
	C36.591003,103.906479 32.441822,104.276695 30.719395,108.132896 
	C29.514957,110.829430 29.299339,114.647209 30.213381,117.452171 
	C31.607439,121.730186 35.799709,122.637573 40.068459,122.630257 
	C59.545525,122.596863 79.022675,122.615730 99.499802,122.615829 
M136.500000,179.002960 
	C153.148499,179.002945 169.797012,178.991882 186.445496,179.009705 
	C191.365723,179.014969 195.348175,177.391708 197.017044,172.427429 
	C199.273727,165.714600 194.431992,160.093475 186.404099,160.088531 
	C137.624008,160.058456 88.843880,160.070328 40.063766,160.090775 
	C38.748962,160.091324 37.382336,160.163803 36.128853,160.517792 
	C31.614670,161.792618 29.005236,164.832733 28.996603,169.546646 
	C28.988401,174.026962 31.380558,177.113739 35.719017,178.332840 
	C37.594814,178.859924 39.636032,178.974213 41.602467,178.976562 
	C72.901611,179.014069 104.200813,179.002960 136.500000,179.002960 
M64.499924,66.215172 
	C105.448227,66.214951 146.396545,66.232239 187.344818,66.195862 
	C193.573242,66.190323 197.525284,62.542404 197.572296,57.072205 
	C197.619156,51.621647 193.612015,47.844425 187.470428,47.840649 
	C138.032898,47.810261 88.595299,47.812508 39.157749,47.838818 
	C33.031788,47.842079 28.980137,51.552155 28.944960,56.942764 
	C28.909662,62.352131 32.941364,66.136497 39.031006,66.194504 
	C47.186634,66.272202 55.343555,66.214661 64.499924,66.215172 
z"/>
<path fill="#060606" opacity="1.000000" stroke="none" 
	d="
M98.999802,122.615822 
	C79.022675,122.615730 59.545525,122.596863 40.068459,122.630257 
	C35.799709,122.637573 31.607439,121.730186 30.213381,117.452171 
	C29.299339,114.647209 29.514957,110.829430 30.719395,108.132896 
	C32.441822,104.276695 36.591003,103.906479 40.636368,103.911873 
	C86.582321,103.973190 132.528381,103.950798 178.474426,103.950813 
	C181.137970,103.950821 183.801575,103.938232 186.465027,103.953629 
	C193.312393,103.993202 197.610062,107.609734 197.588791,113.298904 
	C197.567505,118.991928 193.356934,122.571396 186.397583,122.599861 
	C173.080109,122.654327 159.762268,122.615807 146.444580,122.615829 
	C130.796326,122.615860 115.148064,122.615829 98.999802,122.615822 
z"/>
<path fill="#020202" opacity="1.000000" stroke="none" 
	d="
M136.000000,179.002960 
	C104.200813,179.002960 72.901611,179.014069 41.602467,178.976562 
	C39.636032,178.974213 37.594814,178.859924 35.719017,178.332840 
	C31.380558,177.113739 28.988401,174.026962 28.996603,169.546646 
	C29.005236,164.832733 31.614670,161.792618 36.128853,160.517792 
	C37.382336,160.163803 38.748962,160.091324 40.063766,160.090775 
	C88.843880,160.070328 137.624008,160.058456 186.404099,160.088531 
	C194.431992,160.093475 199.273727,165.714600 197.017044,172.427429 
	C195.348175,177.391708 191.365723,179.014969 186.445496,179.009705 
	C169.797012,178.991882 153.148499,179.002945 136.000000,179.002960 
z"/>
<path fill="#000000" opacity="1.000000" stroke="none" 
	d="
M63.999924,66.215179 
	C55.343555,66.214661 47.186634,66.272202 39.031006,66.194504 
	C32.941364,66.136497 28.909662,62.352131 28.944960,56.942764 
	C28.980137,51.552155 33.031788,47.842079 39.157749,47.838818 
	C88.595299,47.812508 138.032898,47.810261 187.470428,47.840649 
	C193.612015,47.844425 197.619156,51.621647 197.572296,57.072205 
	C197.525284,62.542404 193.573242,66.190323 187.344818,66.195862 
	C146.396545,66.232239 105.448227,66.214951 63.999924,66.215179 
z"/>
</svg>